# xmcd
# 
# Track frame offsets:
#     150
#     14385
#     29198
#     43916
#     57609
#     70805
#     82745
#     94978
#     106610
#     119288
#     133306
#     152826
#     165696
#     178943
#     191958
#     206449
#     220455
#     235266
#     249036
#     262296
#     272782
# 
# Disc length: 3800
# 
# Revision: 0
# Processed by: cddbd v1.5.2PL0 Copyright (c) Steve Scherf et al.
# Submitted via: fre:ac v1.0.27
# 
DISCID=410ed615
DTITLE=Various Artist - Blues
DYEAR=0
DGENRE=Blues
TTITLE0=Howlin' Wolf - Smokestack Lightning
TTITLE1=B.B. King - Mr. Pawnbroker
TTITLE2=Freddy King - You've Got To Love Her With A Feeling
TTITLE3=Bobby "Blue" Bland - Farthur Up The Road
TTITLE4=Willie Mabon - The Seventh Son
TTITLE5=Roosevelt Sykes - Night Time Is The Right Time
TTITLE6=Smokey Hogg - Smokey's In Town
TTITLE7=Memphis Slim - Every Day I Have The Blues (Nobody Loves Me)
TTITLE8=Muddy Waters - I Can't Be Satisfied
TTITLE9=Pee Wee Crayton - Blues After Hours
TTITLE10=Big Bill Broonzy - Diggin' My Potatoes
TTITLE11=Ethel Mae and Robert Nighthawk - Down The Line
TTITLE12=Arthur "Big Boy" Crudup - That's All Right
TTITLE13=Eddie "Cleanhead" Vinson - Cleanhead Blues
TTITLE14=Lead Belly - John Henry
TTITLE15=Bill "Jazz" Gillum - Take One More Chance With Me
TTITLE16=Stick McGhee and His Buddies - Drinkin' Wine Spo-Dee-O-Dee
TTITLE17=T-Bone Walker - Call It Stormy Monday
TTITLE18=Son House - Walking Blues (Death Letter Blues)
TTITLE19=Cecil Grant - We're Gonna Rock
TTITLE20=Louis Jordan - Caldonia Boogie
EXTD=CD 1 of 8 of mixed blues, '40s-'60s, from 'Big Box'
EXTT0=
EXTT1=
EXTT2=
EXTT3=
EXTT4=
EXTT5=
EXTT6=
EXTT7=
EXTT8=
EXTT9=
EXTT10=
EXTT11=
EXTT12=
EXTT13=
EXTT14=
EXTT15=
EXTT16=
EXTT17=
EXTT18=
EXTT19=
EXTT20=
PLAYORDER=
